# xmcd CD database file
#
# Track frame offsets:
#	150
#	30419
#	47261
#	75220
#	104405
#	126416
#	146822
#	166467
#	196296
#	212880
#	234337
#	251960
#	282880
#	301999
#
# Disc length: 4327 seconds
#
# Revision: 0
# Processed by: cddbd v1.5.2PL0 Copyright (c) Steve Scherf et al.
# Submitted via: CDex 1.70beta2
#
DISCID=bf10e50e
DTITLE=Yasumasa Kumagai and Ryu Kawamura - Ol'school Jazz
DYEAR=2009
DGENRE=Jazz
TTITLE0=Yasumasa Kumagai and Ryu Kawamura - Driftin' 
TTITLE1=Yasumasa Kumagai and Ryu Kawamura - Duke Elingtin's Sound Of Love 
TTITLE2=Yasumasa Kumagai and Ryu Kawamura - If I Were Bell 
TTITLE3=Yasumasa Kumagai and Ryu Kawamura - Duke Elingtin's Sound Of Love 
TTITLE4=Yasumasa Kumagai and Ryu Kawamura - All The Things You Are 
TTITLE5=Yasumasa Kumagai and Ryu Kawamura - Up Jumped Spring 
TTITLE6=Yasumasa Kumagai and Ryu Kawamura - Evidence
TTITLE7=Yasumasa Kumagai and Ryu Kawamura - Stable Mates 
TTITLE8=Yasumasa Kumagai and Ryu Kawamura - Cherokee
TTITLE9=Yasumasa Kumagai and Ryu Kawamura - Sleeping Dancer Sleep On 
TTITLE10=Yasumasa Kumagai and Ryu Kawamura - Blues 
TTITLE11=Yasumasa Kumagai and Ryu Kawamura - Alone Together 
TTITLE12=Yasumasa Kumagai and Ryu Kawamura - Salt Peanuts 
TTITLE13=Yasumasa Kumagai and Ryu Kawamura - Amazing Grace 
EXTD=YEAR: 2009
EXTT0=
EXTT1=
EXTT2=
EXTT3=
EXTT4=
EXTT5=
EXTT6=
EXTT7=
EXTT8=
EXTT9=
EXTT10=
EXTT11=
EXTT12=
EXTT13=
PLAYORDER=
